<?xml version="1.0" encoding="UTF-8"?>
<svg version="1.1" xmlns="http://www.w3.org/2000/svg" width="465" height="184">
<path d="M0 0 C153.45 0 306.9 0 465 0 C465 60.72 465 121.44 465 184 C311.55 184 158.1 184 0 184 C0 123.28 0 62.56 0 0 Z " fill="#171614" transform="translate(0,0)"/>
<path d="M0 0 C8.91 0 17.82 0 27 0 C27.33 13.86 27.66 27.72 28 42 C30.31 39.36 32.62 36.72 35 34 C36.81329868 32.1468486 38.64497272 30.31137958 40.5 28.5 C44.21866647 24.8312358 47.78130628 21.08814701 51.171875 17.11328125 C54.31978741 13.47434831 57.60386775 9.95690316 60.86328125 6.41796875 C63.0996055 3.9971754 63.0996055 3.9971754 65 1 C67.98095703 0.65942383 67.98095703 0.65942383 71.7578125 0.70703125 C72.42086395 0.71127609 73.08391541 0.71552094 73.76705933 0.71989441 C75.88678441 0.73670029 78.00556188 0.77435299 80.125 0.8125 C81.56118419 0.82754451 82.99738328 0.84123332 84.43359375 0.85351562 C87.95603764 0.8866091 91.47792636 0.9384032 95 1 C93.17258959 4.7946815 90.8913741 8.15059701 88.4375 11.5625 C87.7714978 12.4901416 87.7714978 12.4901416 87.09204102 13.43652344 C77.23919873 27.03607322 65.95330809 39.2477756 54 51 C57.17528904 55.26260519 60.37789963 59.50182189 63.62890625 63.70703125 C72.01401593 74.57465156 80.00483176 85.61449107 87.65039062 97.01318359 C89.99392641 100.46320064 92.45038597 103.83103182 94.92578125 107.1875 C96 109 96 109 96 112 C71.79771665 114.50227405 71.79771665 114.50227405 64.57617188 110.73583984 C60.57875572 107.31343662 58.017284 102.9710962 55.4453125 98.43066406 C52.8429098 94.05405573 49.6459776 90.10667522 46.5625 86.0625 C42.1905277 80.15987262 38.02708166 74.14286729 34 68 C30.535 68.99 30.535 68.99 27 70 C27 84.19 27 98.38 27 113 C18.09 113 9.18 113 0 113 C0 75.71 0 38.42 0 0 Z " fill="#FBFBFB" transform="translate(364,21)"/>
<path d="M0 0 C2.13137639 -0.0043262 4.2605975 -0.04054198 6.39160156 -0.07861328 C18.84504829 -0.18140323 30.19570009 2.32716002 40.66503906 9.37060547 C41.65503906 10.36060547 41.65503906 10.36060547 42.66503906 11.37060547 C42.38379394 16.34648078 40.51451941 19.94789504 38.10253906 24.24560547 C37.461875 25.39802734 36.82121094 26.55044922 36.16113281 27.73779297 C35.66742188 28.60662109 35.17371094 29.47544922 34.66503906 30.37060547 C30.03487058 29.74853703 25.97299191 28.506553 21.60253906 26.87060547 C15.05392128 24.42465051 9.66556773 23.21112955 2.66503906 23.12060547 C1.46878906 23.09482422 0.27253906 23.06904297 -0.95996094 23.04248047 C-4.63050359 23.39933878 -6.42748137 24.14846037 -9.33496094 26.37060547 C-11.62495249 29.23844118 -11.62495249 29.23844118 -11.45996094 32.74560547 C-10.09884569 37.13142126 -8.93618693 38.05374692 -5.02636719 40.18701172 C1.81892626 43.19735122 9.00697011 45.29925565 16.17285156 47.39794922 C26.86297664 50.54433355 36.32156835 53.64507211 42.66503906 63.37060547 C45.79784387 69.22439098 46.15423583 74.16601657 46.10253906 80.74560547 C46.12251953 81.64021484 46.1425 82.53482422 46.16308594 83.45654297 C46.15636581 92.70344154 42.99434383 99.8324663 36.71582031 106.58154297 C23.64486875 117.98439214 4.79388086 116.3115749 -11.33496094 115.37060547 C-21.43827873 114.22891124 -33.97921519 109.72635122 -41.33496094 102.37060547 C-40.99027507 97.913737 -38.9774738 94.07161679 -37.02246094 90.12060547 C-36.72662109 89.48380859 -36.43078125 88.84701172 -36.12597656 88.19091797 C-33.90688081 83.68562637 -33.90688081 83.68562637 -31.41308594 82.31201172 C-28.62341918 82.39066774 -26.87968882 83.2852638 -24.39746094 84.55810547 C-13.72608879 89.62488428 -3.28651802 92.99437883 8.66503906 91.37060547 C11.90003546 89.98967359 14.17951284 88.85613169 16.66503906 86.37060547 C17.39206083 80.9210146 17.39206083 80.9210146 15.05957031 76.26513672 C12.13560266 73.95172022 9.5360432 73.04489757 5.97753906 71.93310547 C5.32760986 71.72556641 4.67768066 71.51802734 4.00805664 71.30419922 C0.44011125 70.17779212 -3.14818259 69.13246354 -6.74902344 68.11669922 C-30.90469675 61.29294193 -30.90469675 61.29294193 -35.70605469 53.00341797 C-40.32704014 43.97089683 -42.52520452 34.4112852 -39.78857422 24.36474609 C-36.14963551 14.40019935 -30.17061253 8.62510347 -21.08496094 3.55810547 C-20.17746094 3.16623047 -19.26996094 2.77435547 -18.33496094 2.37060547 C-17.59826172 2.02304199 -16.8615625 1.67547852 -16.10253906 1.31738281 C-10.93625156 -0.44998336 -5.41066624 -0.0012258 0 0 Z " fill="#FCFCFC" transform="translate(51.3349609375,19.62939453125)"/>
<path d="M0 0 C7.92 0 15.84 0 24 0 C24 14.52 24 29.04 24 44 C27.3 42.02 30.6 40.04 34 38 C42.23921567 35.94019608 53.53489547 35.02629609 61.25 39.0625 C67.8032852 43.63695006 72.04002922 49.17626844 74 57 C74.40208698 61.63917991 74.34965441 66.25267964 74.29296875 70.90625 C74.28736317 72.24002604 74.28309763 73.57380831 74.28010559 74.90759277 C74.26873227 78.3929189 74.23933169 81.87786112 74.20599365 85.36303711 C74.1751291 88.92947193 74.1615655 92.49596969 74.14648438 96.0625 C74.1144532 103.04183885 74.06174828 110.02086138 74 117 C66.08 117 58.16 117 50 117 C49.97421875 113.47183594 49.9484375 109.94367188 49.921875 106.30859375 C49.8834282 102.87972135 49.83827624 99.45099799 49.79248047 96.0222168 C49.76430953 93.6450109 49.7430758 91.26771202 49.72900391 88.89038086 C49.70752151 85.46680221 49.66084127 82.04433711 49.609375 78.62109375 C49.60814636 77.56353378 49.60691772 76.50597382 49.60565186 75.41636658 C49.48099462 69.09134894 48.77624236 65.14300356 45 60 C41.10644049 57.51244809 36.51359038 57.24037422 32 58 C28.67191761 59.88413915 28.67191761 59.88413915 26 62 C25.34 62 24.68 62 24 62 C24 80.15 24 98.3 24 117 C16.08 117 8.16 117 0 117 C0 78.39 0 39.78 0 0 Z " fill="#FDFDFD" transform="translate(108,16)"/>
<path d="M0 0 C1.04889404 -0.01869141 2.09778809 -0.03738281 3.1784668 -0.05664062 C11.61554217 0.01222805 19.89338399 1.61580289 26.8125 6.75 C35.25844744 15.8139436 35.67137061 26.94799016 35.5703125 38.75 C35.5674826 40.00385498 35.56465271 41.25770996 35.56173706 42.54956055 C35.55248144 45.8572465 35.53456217 49.16473182 35.5123291 52.47235107 C35.49174364 55.85784469 35.48270839 59.24336787 35.47265625 62.62890625 C35.45066871 69.25269178 35.41617636 75.87630709 35.375 82.5 C28.115 82.5 20.855 82.5 13.375 82.5 C12.88 78.54 12.88 78.54 12.375 74.5 C10.92867187 75.24056641 10.92867187 75.24056641 9.453125 75.99609375 C8.17719148 76.64344237 6.90114379 77.29056599 5.625 77.9375 C4.67367187 78.42573242 4.67367187 78.42573242 3.703125 78.92382812 C-5.04321956 83.34255428 -15.72390285 84.16751401 -25.30859375 81.8515625 C-30.89698613 79.30247124 -35.02993321 74.66828336 -37.765625 69.234375 C-39.8289485 62.66925476 -39.97240763 53.35683684 -37.0625 47 C-31.9622585 38.79681437 -25.30636034 34.13826561 -15.98046875 31.8515625 C-7.28672665 30.21033622 1.55457968 29.89712793 10.375 29.5 C10.156213 25.35445948 10.156213 25.35445948 7.84765625 22.1484375 C4.18190271 21.18711825 0.57649216 21.11840331 -3.1875 21.125 C-3.9909082 21.12443604 -4.79431641 21.12387207 -5.62207031 21.12329102 C-11.39051833 21.22940541 -16.08793868 22.22218667 -21.41015625 24.54296875 C-24.10095147 25.70565804 -26.71883493 26.18581999 -29.625 26.5 C-30.58923026 25.10823368 -31.54611602 23.7113777 -32.5 22.3125 C-33.03367188 21.53519531 -33.56734375 20.75789063 -34.1171875 19.95703125 C-35.60515439 17.5323391 -36.64928078 15.1666501 -37.625 12.5 C-25.41465011 3.43574026 -15.22953185 0.18742666 0 0 Z " fill="#FBFBFB" transform="translate(229.625,50.5)"/>
<path d="M0 0 C7.26093448 4.44547009 11.397959 8.63784367 14.0625 16.875 C14.9560497 20.62748323 15.18413832 24.09679978 15.17602539 27.95043945 C15.17591209 29.75174065 15.17591209 29.75174065 15.17579651 31.58943176 C15.17063522 32.87605209 15.16547394 34.16267242 15.16015625 35.48828125 C15.15828956 36.82634936 15.15686684 38.16441815 15.15586853 39.50248718 C15.15206314 43.0123587 15.14224988 46.52218839 15.13116455 50.03204346 C15.12090777 53.61836176 15.11636179 57.20468686 15.11132812 60.79101562 C15.10062572 67.81902926 15.08304506 74.84700831 15.0625 81.875 C6.8125 81.875 -1.4375 81.875 -9.9375 81.875 C-9.97488281 78.03488281 -10.01226562 74.19476563 -10.05078125 70.23828125 C-10.09699495 66.51825266 -10.14822936 62.79832474 -10.19995117 59.07836914 C-10.23320111 56.49347046 -10.26123277 53.90849916 -10.28393555 51.32348633 C-10.31747927 47.60726991 -10.36979728 43.89171899 -10.42578125 40.17578125 C-10.43217117 39.02040359 -10.4385611 37.86502594 -10.44514465 36.67463684 C-10.46493881 35.59389389 -10.48473297 34.51315094 -10.50512695 33.3996582 C-10.52178154 31.97735649 -10.52178154 31.97735649 -10.53877258 30.52632141 C-11.01392748 27.36679862 -12.09359256 25.46298582 -13.9375 22.875 C-16.69829908 21.01568633 -19.01157234 20.55791101 -22.3125 20.5 C-23.40691406 20.45746094 -23.40691406 20.45746094 -24.5234375 20.4140625 C-28.09146647 21.09533664 -30.68631769 21.99887848 -32.9375 24.875 C-33.87732705 29.14196792 -33.77448256 33.3799418 -33.7421875 37.734375 C-33.75589386 38.99388977 -33.76960022 40.25340454 -33.78372192 41.55108643 C-33.81477351 44.89227806 -33.82013678 48.23150394 -33.81304932 51.57269287 C-33.81213603 54.98482232 -33.8446746 58.39662247 -33.875 61.80859375 C-33.93200144 68.49811956 -33.93326008 75.18439948 -33.9375 81.875 C-42.1875 81.875 -50.4375 81.875 -58.9375 81.875 C-58.9375 54.815 -58.9375 27.755 -58.9375 -0.125 C-50.6875 -0.125 -42.4375 -0.125 -33.9375 -0.125 C-33.9375 2.515 -33.9375 5.155 -33.9375 7.875 C-33.20144531 7.39289062 -32.46539062 6.91078125 -31.70703125 6.4140625 C-30.73121094 5.78242187 -29.75539063 5.15078125 -28.75 4.5 C-27.78707031 3.87351562 -26.82414062 3.24703125 -25.83203125 2.6015625 C-18.26947191 -1.90943781 -8.43734483 -3.24808947 0 0 Z " fill="#F8F8F8" transform="translate(335.9375,52.125)"/>
<path d="M0 0 C2.5 -0.3125 2.5 -0.3125 5 0 C7.67327164 2.67327164 7.39240805 4.13617986 7.5 7.875 C7.31748285 17.60209071 3.35861946 24.8343895 -3.1875 31.875 C-12.51355088 40.44195372 -22.86811959 43.55053586 -35 46 C-35.80211914 46.16858017 -36.60423828 46.33716034 -37.43066406 46.510849 C-43.99408568 47.81007389 -50.25575879 48.30623373 -56.9375 48.30078125 C-57.95919281 48.3063353 -58.98088562 48.31188934 -60.03353882 48.31761169 C-63.35583798 48.32940267 -66.6777007 48.32309707 -70 48.3125 C-71.14704407 48.31100952 -72.29408813 48.30951904 -73.47589111 48.3079834 C-102.41805561 48.24078683 -131.05158665 46.14547945 -159.8125 43.0625 C-160.58573608 42.97991943 -161.35897217 42.89733887 -162.15563965 42.81225586 C-164.52440345 42.55908679 -166.89307242 42.30504683 -169.26171875 42.05078125 C-170.05389801 41.9659549 -170.84607727 41.88112854 -171.66226196 41.79373169 C-175.78611885 41.35082991 -179.90862495 40.89851065 -184.02978516 40.43115234 C-208.71052968 37.66004434 -233.25390828 36.5796977 -258.07271576 36.508255 C-260.27552984 36.50013626 -262.47820382 36.48515345 -264.68096924 36.46862793 C-290.70018766 36.29817045 -316.49738054 37.64697147 -340.265625 49.30078125 C-342 50 -342 50 -345 50 C-343.97403231 46.74869394 -342.86980842 45.91817476 -339.9296875 44.0703125 C-338.58834115 43.40099765 -337.23567718 42.75408663 -335.875 42.125 C-335.13217773 41.78130371 -334.38935547 41.43760742 -333.62402344 41.08349609 C-327.32405502 38.31843867 -320.9062372 36.3396987 -314.25 34.625 C-313.34878418 34.38668457 -312.44756836 34.14836914 -311.51904297 33.90283203 C-294.43213127 29.79924738 -276.54638939 29.59220438 -259.0625 29.625 C-258.05186493 29.62487915 -257.04122986 29.6247583 -255.99996948 29.62463379 C-220.98400507 29.68297168 -186.04040058 33.07683734 -151.23657227 36.69238281 C-142.64350443 37.58184179 -134.07717786 38.3002878 -125.44873047 38.74731445 C-122 39 -122 39 -119.15142822 39.50671387 C-116.08661208 39.9864428 -113.22749098 40.13335831 -110.12841797 40.14526367 C-108.99217987 40.15164352 -107.85594177 40.15802338 -106.68527222 40.16459656 C-104.85719528 40.16626579 -104.85719528 40.16626579 -102.9921875 40.16796875 C-101.71634796 40.17129715 -100.44050842 40.17462555 -99.12600708 40.17805481 C-96.42107297 40.18403258 -93.71617071 40.18589665 -91.01123047 40.18530273 C-88.27874017 40.18522221 -85.54642014 40.19204524 -82.81396484 40.20581055 C-43.98551461 41.72655158 -43.98551461 41.72655158 -10.23046875 25.30859375 C-4.72333814 19.31908674 -2.72064695 13.27565554 -2.30859375 5.234375 C-2 3 -2 3 0 0 Z " fill="#B839A5" transform="translate(403,124)"/>
<path d="M0 0 C1.19882813 0.00483398 1.19882813 0.00483398 2.421875 0.00976562 C3.246875 0.01814453 4.071875 0.02652344 4.921875 0.03515625 C5.76234375 0.03966797 6.6028125 0.04417969 7.46875 0.04882812 C9.53648901 0.06057664 11.60419124 0.07851103 13.671875 0.09765625 C13.671875 4.38765625 13.671875 8.67765625 13.671875 13.09765625 C6.04791358 15.96785349 -1.10888691 18.6489694 -9.328125 17.09765625 C-12.515625 15.03515625 -12.515625 15.03515625 -14.328125 12.09765625 C-15.015625 8.53515625 -15.015625 8.53515625 -14.328125 5.09765625 C-9.82432436 1.20801024 -5.81976209 -0.04156973 0 0 Z " fill="#1E1D1B" transform="translate(228.328125,96.90234375)"/>
<path d="M0 0 C-0.33 0.99 -0.66 1.98 -1 3 C-2.07145264 3.029729 -2.07145264 3.029729 -3.16455078 3.06005859 C-22.17565469 3.53585932 -22.17565469 3.53585932 -41 6 C-42.85431641 6.32484375 -42.85431641 6.32484375 -44.74609375 6.65625 C-51.96046817 7.99305251 -58.8026776 9.74266521 -65.70703125 12.23046875 C-68 13 -68 13 -70 13 C-70 12.34 -70 11.68 -70 11 C-59.46872454 6.94095508 -49.14794271 3.01144583 -38 1 C-36.95457031 0.79632813 -35.90914062 0.59265625 -34.83203125 0.3828125 C-24.32922243 -1.41485466 -10.23763604 -3.41254535 0 0 Z " fill="#B438A1" transform="translate(139,145)"/>
<path d="M0 0 C1.32 0.33 2.64 0.66 4 1 C5.78860829 7.67679345 3.15591989 11.88445518 0.015625 17.65234375 C-4.72311305 25.5226897 -11.35009598 30.71489097 -20 34 C-22.33203125 33.65625 -22.33203125 33.65625 -24 33 C-23.34773438 32.64808594 -22.69546875 32.29617187 -22.0234375 31.93359375 C-12.72805632 26.68266308 -7.57190047 21.10882512 -4 11 C-3.60102721 9.54804207 -3.22437413 8.08968387 -2.875 6.625 C-2 3 -2 3 0 0 Z " fill="#B739A3" transform="translate(417,135)"/>
<path d="M0 0 C-2.66976581 3.4102848 -5.79415857 4.02929839 -9.875 5.125 C-11.08929688 5.45757812 -12.30359375 5.79015625 -13.5546875 6.1328125 C-16.36287036 6.83963404 -19.15425022 7.46980327 -22 8 C-22 7.34 -22 6.68 -22 6 C-18.901466 4.79741744 -15.79541934 3.61559217 -12.6875 2.4375 C-11.80642578 2.09525391 -10.92535156 1.75300781 -10.01757812 1.40039062 C-9.17001953 1.08134766 -8.32246094 0.76230469 -7.44921875 0.43359375 C-6.27879028 -0.01415405 -6.27879028 -0.01415405 -5.0847168 -0.47094727 C-3 -1 -3 -1 0 0 Z " fill="#A43593" transform="translate(91,150)"/>
</svg>
